<mxfile host="app.diagrams.net" modified="2023-10-29T02:27:44.291Z" agent="Mozilla/5.0 (Windows NT 10.0; Win64; x64) AppleWebKit/537.36 (KHTML, like Gecko) Chrome/118.0.0.0 Safari/537.36 Edg/118.0.2088.69" etag="hJ5uxBQFOY9xOFg7fj5S" version="22.0.8" type="github">
  <diagram name="Page-1" id="e7e014a7-5840-1c2e-5031-d8a46d1fe8dd">
    <mxGraphModel dx="1602" dy="719" grid="1" gridSize="10" guides="1" tooltips="1" connect="1" arrows="1" fold="1" page="1" pageScale="1" pageWidth="1169" pageHeight="826" background="none" math="0" shadow="0">
      <root>
        <mxCell id="0" />
        <mxCell id="1" parent="0" />
        <mxCell id="2" value="User Management" style="swimlane;whiteSpace=wrap;startSize=23;" parent="1" vertex="1">
          <mxGeometry x="164.5" y="128" width="280" height="570" as="geometry" />
        </mxCell>
        <mxCell id="5" value="" style="ellipse;shape=startState;fillColor=#000000;strokeColor=#ff0000;" parent="2" vertex="1">
          <mxGeometry x="105.5" y="40" width="30" height="30" as="geometry" />
        </mxCell>
        <mxCell id="6" value="" style="edgeStyle=elbowEdgeStyle;elbow=horizontal;verticalAlign=bottom;endArrow=open;endSize=8;strokeColor=#FF0000;endFill=1;rounded=0" parent="2" source="a03K_F9oIWUsOxtd3oDN-53" edge="1">
          <mxGeometry x="100" y="40" as="geometry">
            <mxPoint x="115.5" y="110" as="targetPoint" />
          </mxGeometry>
        </mxCell>
        <mxCell id="8" value="Register/LogIn" style="" parent="2" vertex="1">
          <mxGeometry x="65.5" y="162" width="110" height="42" as="geometry" />
        </mxCell>
        <mxCell id="a03K_F9oIWUsOxtd3oDN-77" style="edgeStyle=orthogonalEdgeStyle;rounded=0;orthogonalLoop=1;jettySize=auto;html=1;exitX=0.5;exitY=1;exitDx=0;exitDy=0;entryX=0.5;entryY=0;entryDx=0;entryDy=0;" edge="1" parent="2" source="a03K_F9oIWUsOxtd3oDN-53" target="8">
          <mxGeometry relative="1" as="geometry" />
        </mxCell>
        <mxCell id="a03K_F9oIWUsOxtd3oDN-53" value="User Action" style="rounded=0;whiteSpace=wrap;html=1;" vertex="1" parent="2">
          <mxGeometry x="60.5" y="90" width="120" height="50" as="geometry" />
        </mxCell>
        <mxCell id="a03K_F9oIWUsOxtd3oDN-64" value="Validate" style="rhombus;whiteSpace=wrap;html=1;" vertex="1" parent="2">
          <mxGeometry x="195.5" y="192" width="80" height="58" as="geometry" />
        </mxCell>
        <mxCell id="a03K_F9oIWUsOxtd3oDN-67" value="" style="endArrow=classic;html=1;rounded=0;" edge="1" parent="2">
          <mxGeometry width="50" height="50" relative="1" as="geometry">
            <mxPoint x="175.5" y="190" as="sourcePoint" />
            <mxPoint x="925.5" y="122" as="targetPoint" />
          </mxGeometry>
        </mxCell>
        <mxCell id="a03K_F9oIWUsOxtd3oDN-79" value="" style="endArrow=classic;html=1;rounded=0;exitX=0.5;exitY=1;exitDx=0;exitDy=0;" edge="1" parent="2" source="5" target="a03K_F9oIWUsOxtd3oDN-53">
          <mxGeometry width="50" height="50" relative="1" as="geometry">
            <mxPoint x="205.5" y="242" as="sourcePoint" />
            <mxPoint x="255.5" y="192" as="targetPoint" />
          </mxGeometry>
        </mxCell>
        <mxCell id="a03K_F9oIWUsOxtd3oDN-96" value="" style="endArrow=classic;html=1;rounded=0;exitX=0.108;exitY=0.632;exitDx=0;exitDy=0;exitPerimeter=0;" edge="1" parent="2" source="a03K_F9oIWUsOxtd3oDN-64">
          <mxGeometry width="50" height="50" relative="1" as="geometry">
            <mxPoint x="825.5" y="482" as="sourcePoint" />
            <mxPoint x="60.5" y="115" as="targetPoint" />
            <Array as="points">
              <mxPoint x="35.5" y="232" />
              <mxPoint x="35.5" y="112" />
            </Array>
          </mxGeometry>
        </mxCell>
        <mxCell id="3" value="Messaging" style="swimlane;whiteSpace=wrap" parent="1" vertex="1">
          <mxGeometry x="444.5" y="128" width="280" height="570" as="geometry" />
        </mxCell>
        <mxCell id="a03K_F9oIWUsOxtd3oDN-56" value="Create/Post Message" style="rounded=0;whiteSpace=wrap;html=1;" vertex="1" parent="3">
          <mxGeometry x="65.5" y="302" width="120" height="60" as="geometry" />
        </mxCell>
        <mxCell id="a03K_F9oIWUsOxtd3oDN-57" value="View and Interact with posted message" style="rounded=0;whiteSpace=wrap;html=1;" vertex="1" parent="3">
          <mxGeometry x="65.5" y="382" width="120" height="60" as="geometry" />
        </mxCell>
        <mxCell id="a03K_F9oIWUsOxtd3oDN-66" value="Open the Homepage" style="rounded=0;whiteSpace=wrap;html=1;" vertex="1" parent="3">
          <mxGeometry x="65.5" y="225" width="120" height="60" as="geometry" />
        </mxCell>
        <mxCell id="a03K_F9oIWUsOxtd3oDN-84" value="" style="endArrow=classic;html=1;rounded=0;exitX=0.5;exitY=1;exitDx=0;exitDy=0;" edge="1" parent="3" source="a03K_F9oIWUsOxtd3oDN-66" target="a03K_F9oIWUsOxtd3oDN-56">
          <mxGeometry width="50" height="50" relative="1" as="geometry">
            <mxPoint x="545.5" y="482" as="sourcePoint" />
            <mxPoint x="595.5" y="432" as="targetPoint" />
          </mxGeometry>
        </mxCell>
        <mxCell id="4" value="Subscription" style="swimlane;whiteSpace=wrap" parent="1" vertex="1">
          <mxGeometry x="724.5" y="128" width="280" height="570" as="geometry" />
        </mxCell>
        <mxCell id="a03K_F9oIWUsOxtd3oDN-58" value="Subscribe to other message" style="rounded=0;whiteSpace=wrap;html=1;" vertex="1" parent="4">
          <mxGeometry x="55.5" y="382" width="120" height="60" as="geometry" />
        </mxCell>
        <mxCell id="a03K_F9oIWUsOxtd3oDN-41" value="AdministrativeÂ " style="swimlane;whiteSpace=wrap" vertex="1" parent="1">
          <mxGeometry x="1004.5" y="128" width="280" height="570" as="geometry" />
        </mxCell>
        <mxCell id="a03K_F9oIWUsOxtd3oDN-55" value="Authorize User" style="rounded=0;whiteSpace=wrap;html=1;" vertex="1" parent="a03K_F9oIWUsOxtd3oDN-41">
          <mxGeometry x="90" y="82" width="110" height="60" as="geometry" />
        </mxCell>
        <mxCell id="a03K_F9oIWUsOxtd3oDN-59" value="Authenticate" style="rounded=0;whiteSpace=wrap;html=1;" vertex="1" parent="a03K_F9oIWUsOxtd3oDN-41">
          <mxGeometry x="75.5" y="262" width="120" height="60" as="geometry" />
        </mxCell>
        <mxCell id="a03K_F9oIWUsOxtd3oDN-47" value="Real time Communication" style="swimlane;whiteSpace=wrap" vertex="1" parent="1">
          <mxGeometry x="1284.5" y="128" width="280" height="570" as="geometry" />
        </mxCell>
        <mxCell id="a03K_F9oIWUsOxtd3oDN-51" value="" style="ellipse;shape=endState;fillColor=#000000;strokeColor=#ff0000" vertex="1" parent="a03K_F9oIWUsOxtd3oDN-47">
          <mxGeometry x="125" y="512" width="30" height="30" as="geometry" />
        </mxCell>
        <mxCell id="a03K_F9oIWUsOxtd3oDN-60" value="Real Time Communication to deliver the message" style="rounded=0;whiteSpace=wrap;html=1;" vertex="1" parent="a03K_F9oIWUsOxtd3oDN-47">
          <mxGeometry x="85" y="362" width="120" height="60" as="geometry" />
        </mxCell>
        <mxCell id="a03K_F9oIWUsOxtd3oDN-71" value="Log&amp;nbsp; Out" style="rounded=0;whiteSpace=wrap;html=1;" vertex="1" parent="a03K_F9oIWUsOxtd3oDN-47">
          <mxGeometry x="90.25" y="442" width="109.5" height="48" as="geometry" />
        </mxCell>
        <mxCell id="a03K_F9oIWUsOxtd3oDN-90" value="" style="endArrow=classic;html=1;rounded=0;exitX=0.5;exitY=1;exitDx=0;exitDy=0;" edge="1" parent="a03K_F9oIWUsOxtd3oDN-47" source="a03K_F9oIWUsOxtd3oDN-60" target="a03K_F9oIWUsOxtd3oDN-71">
          <mxGeometry width="50" height="50" relative="1" as="geometry">
            <mxPoint x="-294.5" y="482" as="sourcePoint" />
            <mxPoint x="-244.5" y="432" as="targetPoint" />
          </mxGeometry>
        </mxCell>
        <mxCell id="a03K_F9oIWUsOxtd3oDN-91" value="" style="endArrow=classic;html=1;rounded=0;entryX=0.5;entryY=0;entryDx=0;entryDy=0;" edge="1" parent="a03K_F9oIWUsOxtd3oDN-47" source="a03K_F9oIWUsOxtd3oDN-71" target="a03K_F9oIWUsOxtd3oDN-51">
          <mxGeometry width="50" height="50" relative="1" as="geometry">
            <mxPoint x="-294.5" y="482" as="sourcePoint" />
            <mxPoint x="-244.5" y="432" as="targetPoint" />
          </mxGeometry>
        </mxCell>
        <mxCell id="a03K_F9oIWUsOxtd3oDN-62" style="edgeStyle=orthogonalEdgeStyle;rounded=0;orthogonalLoop=1;jettySize=auto;html=1;entryX=0;entryY=0.5;entryDx=0;entryDy=0;" edge="1" parent="1" source="a03K_F9oIWUsOxtd3oDN-53" target="a03K_F9oIWUsOxtd3oDN-55">
          <mxGeometry relative="1" as="geometry">
            <Array as="points">
              <mxPoint x="550" y="240" />
              <mxPoint x="550" y="240" />
            </Array>
          </mxGeometry>
        </mxCell>
        <mxCell id="a03K_F9oIWUsOxtd3oDN-68" value="" style="endArrow=classic;html=1;rounded=0;exitX=0;exitY=0.75;exitDx=0;exitDy=0;" edge="1" parent="1" source="a03K_F9oIWUsOxtd3oDN-55">
          <mxGeometry width="50" height="50" relative="1" as="geometry">
            <mxPoint x="680" y="370" as="sourcePoint" />
            <mxPoint x="440" y="350" as="targetPoint" />
          </mxGeometry>
        </mxCell>
        <mxCell id="a03K_F9oIWUsOxtd3oDN-83" value="" style="endArrow=classic;html=1;rounded=0;entryX=0;entryY=0.5;entryDx=0;entryDy=0;" edge="1" parent="1" target="a03K_F9oIWUsOxtd3oDN-66">
          <mxGeometry width="50" height="50" relative="1" as="geometry">
            <mxPoint x="440" y="350" as="sourcePoint" />
            <mxPoint x="1040" y="560" as="targetPoint" />
          </mxGeometry>
        </mxCell>
        <mxCell id="a03K_F9oIWUsOxtd3oDN-85" value="" style="endArrow=classic;html=1;rounded=0;" edge="1" parent="1" source="a03K_F9oIWUsOxtd3oDN-56">
          <mxGeometry width="50" height="50" relative="1" as="geometry">
            <mxPoint x="990" y="610" as="sourcePoint" />
            <mxPoint x="1070" y="420" as="targetPoint" />
          </mxGeometry>
        </mxCell>
        <mxCell id="a03K_F9oIWUsOxtd3oDN-86" value="" style="endArrow=classic;html=1;rounded=0;" edge="1" parent="1" target="a03K_F9oIWUsOxtd3oDN-57">
          <mxGeometry width="50" height="50" relative="1" as="geometry">
            <mxPoint x="1070" y="440" as="sourcePoint" />
            <mxPoint x="1040" y="560" as="targetPoint" />
          </mxGeometry>
        </mxCell>
        <mxCell id="a03K_F9oIWUsOxtd3oDN-87" value="" style="endArrow=classic;html=1;rounded=0;exitX=1;exitY=0.5;exitDx=0;exitDy=0;" edge="1" parent="1" source="a03K_F9oIWUsOxtd3oDN-57">
          <mxGeometry width="50" height="50" relative="1" as="geometry">
            <mxPoint x="990" y="610" as="sourcePoint" />
            <mxPoint x="780" y="540" as="targetPoint" />
          </mxGeometry>
        </mxCell>
        <mxCell id="a03K_F9oIWUsOxtd3oDN-88" value="" style="endArrow=classic;html=1;rounded=0;exitX=1;exitY=0.5;exitDx=0;exitDy=0;entryX=0;entryY=0.5;entryDx=0;entryDy=0;" edge="1" parent="1" source="a03K_F9oIWUsOxtd3oDN-58" target="a03K_F9oIWUsOxtd3oDN-60">
          <mxGeometry width="50" height="50" relative="1" as="geometry">
            <mxPoint x="990" y="610" as="sourcePoint" />
            <mxPoint x="1040" y="560" as="targetPoint" />
          </mxGeometry>
        </mxCell>
        <mxCell id="a03K_F9oIWUsOxtd3oDN-89" value="" style="endArrow=classic;html=1;rounded=0;entryX=1;entryY=0.25;entryDx=0;entryDy=0;" edge="1" parent="1" target="a03K_F9oIWUsOxtd3oDN-56">
          <mxGeometry width="50" height="50" relative="1" as="geometry">
            <mxPoint x="1440" y="470" as="sourcePoint" />
            <mxPoint x="1040" y="560" as="targetPoint" />
            <Array as="points">
              <mxPoint x="1440" y="340" />
              <mxPoint x="1050" y="350" />
            </Array>
          </mxGeometry>
        </mxCell>
        <mxCell id="a03K_F9oIWUsOxtd3oDN-95" value="" style="endArrow=classic;html=1;rounded=0;entryX=0;entryY=0.5;entryDx=0;entryDy=0;" edge="1" parent="1" target="a03K_F9oIWUsOxtd3oDN-51">
          <mxGeometry width="50" height="50" relative="1" as="geometry">
            <mxPoint x="400" y="380" as="sourcePoint" />
            <mxPoint x="1040" y="560" as="targetPoint" />
            <Array as="points">
              <mxPoint x="400" y="630" />
            </Array>
          </mxGeometry>
        </mxCell>
      </root>
    </mxGraphModel>
  </diagram>
</mxfile>
